<svg xmlns="http://www.w3.org/2000/svg" width="500" height="500" viewBox="0 0 500 500" version="1.1"><path d="M 359.500 192.414 C 353.966 194.185, 343.110 199.536, 339.500 202.271 C 330.656 208.971, 323.441 219.105, 319.402 230.500 C 316.939 237.450, 316.569 239.943, 316.582 249.500 C 316.596 259.333, 316.923 261.357, 319.664 268.573 C 328.333 291.392, 348.656 306.606, 372 307.749 C 383.148 308.295, 390.651 306.694, 401.715 301.406 C 409.068 297.893, 417.804 290.214, 420.600 284.807 C 421.865 282.360, 421.830 281.981, 420.256 281.155 C 416.887 279.388, 402.839 274, 401.599 274 C 400.911 274, 399.258 275.179, 397.924 276.620 C 389.504 285.719, 373.161 288.496, 361.269 282.849 C 354.284 279.532, 347.291 272.477, 343.786 265.211 C 341.255 259.962, 340.539 257.039, 340.202 250.576 C 339.697 240.882, 340.803 236.331, 345.477 228.871 C 351.929 218.571, 364.548 212.239, 376.500 213.305 C 385.358 214.095, 392.052 216.496, 396.855 220.608 L 401.123 224.261 409.312 220.726 C 413.815 218.781, 418.288 216.936, 419.250 216.626 C 421.710 215.834, 421.459 214.773, 417.750 210.274 C 411.242 202.381, 402.979 196.942, 391.556 193.034 C 384.555 190.638, 366.159 190.283, 359.500 192.414 M 104.901 192.964 C 96.807 193.996, 91.495 196.602, 86.725 201.883 C 80.263 209.036, 78.577 213.404, 78.577 223 C 78.577 240.714, 85.614 247.095, 120.433 260.955 C 135.770 267.060, 138.476 268.554, 139.915 271.712 C 144.074 280.841, 137.662 284.588, 119.393 283.704 C 113.402 283.414, 107.761 283.025, 106.858 282.839 C 105.753 282.611, 102.402 286.167, 96.608 293.717 C 91.874 299.887, 88 305.174, 88 305.467 C 88 305.760, 100.329 306, 115.398 306 C 141.991 306, 142.910 305.934, 146.688 303.750 C 158.695 296.810, 163.992 288.805, 164.788 276.398 C 165.234 269.459, 165.036 268.481, 161.966 262.434 C 156.493 251.651, 150.352 247.470, 126 237.948 C 104.683 229.612, 100.335 226.244, 103.195 220.279 C 105.428 215.623, 108.244 214.845, 121.210 215.300 L 132.919 215.711 142.050 204.779 C 147.072 198.767, 150.938 193.605, 150.642 193.308 C 149.704 192.370, 111.796 192.085, 104.901 192.964 M 271 205.731 C 265.672 206.357, 265.194 207.573, 268.809 211.303 C 271.363 213.938, 272.087 215.615, 272.369 219.555 C 272.954 227.700, 271.155 246.513, 269.009 254.706 C 267.904 258.925, 266.993 263.979, 266.985 265.938 C 266.956 272.634, 267.731 272.434, 239.161 273.148 C 210.414 273.868, 207.149 274.523, 209.979 279 C 210.787 280.278, 215.307 280.500, 240.552 280.500 C 269.408 280.500, 270.221 280.446, 271.871 278.407 C 273.116 276.871, 274.177 271.023, 275.866 256.407 C 277.130 245.458, 279.028 229.686, 280.083 221.357 C 281.137 213.028, 282 205.941, 282 205.607 C 282 204.973, 276.974 205.029, 271 205.731 M 256.937 290.219 C 253.734 291.404, 253.033 292.742, 253.015 297.711 C 252.987 305.414, 259.078 308.330, 264.923 303.411 C 271.795 297.629, 265.412 287.084, 256.937 290.219 M 216.336 292.573 C 214.192 294.718, 213.860 295.760, 214.351 298.823 C 215.710 307.317, 226.349 308.532, 229.001 300.497 C 231.766 292.120, 222.553 286.356, 216.336 292.573" stroke="none" fill="#ffffff" fill-rule="evenodd"/><path d="M 371.250 190.728 C 373.313 190.944, 376.688 190.944, 378.750 190.728 C 380.813 190.513, 379.125 190.336, 375 190.336 C 370.875 190.336, 369.188 190.513, 371.250 190.728 M 142.762 192.707 C 144.006 192.946, 145.806 192.937, 146.762 192.687 C 147.718 192.437, 146.700 192.241, 144.500 192.252 C 142.300 192.263, 141.518 192.468, 142.762 192.707 M 222.414 197.006 C 214.416 197.452, 212.887 197.849, 209.643 200.323 C 201.798 206.307, 200.114 212.547, 202.418 227.094 C 205.963 249.473, 209.897 256.797, 219.577 259.043 C 224.484 260.180, 252.002 260.202, 257.847 259.073 C 260.237 258.611, 263.466 257.292, 265.022 256.142 C 267.064 254.632, 268.008 254.391, 268.416 255.275 C 268.727 255.949, 268.712 255.431, 268.384 254.125 C 268.016 252.666, 268.171 251.987, 268.783 252.366 C 270.068 253.160, 270.919 248.493, 271.920 235.178 C 273.125 219.156, 272.627 215.242, 268.895 211.392 C 266.892 209.325, 266.052 207.694, 266.548 206.836 C 266.973 206.101, 266.949 205.837, 266.495 206.249 C 266.041 206.660, 264.385 204.748, 262.814 201.999 L 259.960 197 250.730 196.803 C 234.830 196.464, 231.747 196.486, 222.414 197.006 M 222.779 209.250 C 221.035 210.609, 220.527 217.387, 220.833 235.179 C 221.057 248.162, 220.861 248, 236.349 248 C 253.917 248, 253 249.134, 253 227.419 L 253 209.950 250.435 208.975 C 246.583 207.511, 224.731 207.728, 222.779 209.250 M 231.750 211.716 C 226.226 212.553, 229.199 214, 236.441 214 C 244.490 214, 247.259 212.635, 241.230 211.639 C 237.378 211.002, 236.413 211.010, 231.750 211.716 M 233.584 236.641 C 232.916 238.384, 235.395 243, 237 243 C 238.605 243, 241.084 238.384, 240.416 236.641 C 240.040 235.663, 238.660 235, 237 235 C 235.340 235, 233.960 235.663, 233.584 236.641 M 140.232 276 C 140.232 277.925, 140.438 278.712, 140.689 277.750 C 140.941 276.788, 140.941 275.212, 140.689 274.250 C 140.438 273.288, 140.232 274.075, 140.232 276 M 219.250 273.689 C 220.213 273.941, 221.787 273.941, 222.750 273.689 C 223.713 273.438, 222.925 273.232, 221 273.232 C 219.075 273.232, 218.287 273.438, 219.250 273.689 M 232.750 281.745 C 237.837 281.927, 246.162 281.927, 251.250 281.745 C 256.337 281.564, 252.175 281.415, 242 281.415 C 231.825 281.415, 227.662 281.564, 232.750 281.745 M 329 286.313 C 329 286.485, 330.462 287.948, 332.250 289.563 L 335.500 292.500 332.563 289.250 C 329.825 286.221, 329 285.540, 329 286.313 M 372.762 308.707 C 374.006 308.946, 375.806 308.937, 376.762 308.687 C 377.718 308.437, 376.700 308.241, 374.500 308.252 C 372.300 308.263, 371.518 308.468, 372.762 308.707" stroke="none" fill="#f9cd12" fill-rule="evenodd"/><path d="M 68.326 128.044 C 60.131 129.665, 55.575 133.299, 52.084 141 C 50.073 145.436, 50.044 146.978, 50.022 249.815 C 50 353.245, 50.018 354.170, 52.078 358.960 C 54.044 363.529, 58.320 367.879, 64 371.088 C 66.123 372.287, 93.669 372.540, 246.500 372.767 C 372.710 372.955, 428.060 372.712, 431.720 371.953 C 438.745 370.496, 444.175 365.975, 447.425 358.875 L 450 353.250 450 250 L 450 146.750 447.402 141.125 C 444.213 134.219, 439.465 130.087, 432.704 128.333 C 428.507 127.245, 395.006 127.020, 250.032 127.110 C 152.389 127.170, 70.622 127.590, 68.326 128.044 M 362.500 191.419 C 342.596 196.043, 326.896 209.918, 319.410 229.500 C 317.360 234.861, 316.616 238.910, 316.234 246.793 C 315.781 256.114, 315.997 257.894, 318.519 265.648 C 330.140 301.371, 367.436 318.098, 400.545 302.435 C 409.936 297.993, 422 286.818, 422 282.561 C 422 281.935, 417.432 279.536, 411.850 277.230 L 401.700 273.039 398.100 276.286 C 392.227 281.585, 387.824 283.824, 381.164 284.896 C 357.730 288.670, 338.021 269.099, 340.332 244.350 C 341.276 234.243, 347.692 223.745, 356.212 218.366 C 368.104 210.859, 387.749 212.357, 397.149 221.488 L 400.777 225.011 409.488 221.006 C 414.279 218.803, 418.829 217, 419.600 217 C 422.553 217, 420.785 212.783, 415.668 207.625 C 408.850 200.753, 404.390 197.859, 394.613 193.965 C 385.099 190.175, 372.240 189.156, 362.500 191.419 M 102.500 192.940 C 89.596 195.163, 78.935 207.469, 78.169 221.022 C 77.709 229.161, 79.065 234.334, 83.095 239.815 C 88.694 247.429, 96.845 251.946, 125 263.040 C 129.675 264.882, 134.963 267.450, 136.750 268.746 C 139.587 270.802, 140 271.674, 140 275.607 C 140 280.009, 139.893 280.160, 135.331 282.178 C 131.249 283.984, 129.334 284.175, 120.081 283.704 C 114.262 283.407, 108.582 282.874, 107.460 282.520 C 105.459 281.889, 101.034 286.814, 89.744 302.235 L 86.987 306 115.051 306 L 143.115 306 147.808 303.410 C 158.911 297.281, 164.090 289.050, 164.787 276.424 C 165.191 269.101, 164.970 267.812, 162.413 262.591 C 157.240 252.026, 150.131 247.195, 125.481 237.495 C 104.929 229.407, 101.785 226.975, 103.427 220.434 C 104.539 216.005, 109.679 214.644, 122.500 215.385 L 133.500 216.021 140 207.894 C 143.575 203.424, 147.735 198.300, 149.245 196.507 L 151.990 193.248 148.870 192.624 C 144.762 191.802, 107.633 192.055, 102.500 192.940 M 222.414 197.006 C 214.416 197.452, 212.887 197.849, 209.643 200.323 C 201.798 206.307, 200.114 212.547, 202.418 227.094 C 205.207 244.698, 208.413 253.025, 213.800 256.649 C 218.202 259.609, 224.960 260.322, 243.778 259.809 C 260.536 259.353, 264.052 258.458, 267.562 253.756 C 269.028 251.792, 269.155 251.759, 268.542 253.500 C 268.154 254.600, 267.584 258.761, 267.275 262.747 C 266.912 267.411, 266.175 270.441, 265.205 271.247 C 264.128 272.142, 256.383 272.669, 238.099 273.093 C 224.020 273.419, 211.713 274.030, 210.750 274.450 C 208.664 275.361, 208.455 278.303, 210.364 279.887 C 212.178 281.393, 245.260 282.509, 259.353 281.540 C 267.581 280.974, 270.624 280.376, 271.932 279.068 C 273.278 277.722, 274.263 272.186, 276.407 253.921 C 277.918 241.039, 279.795 225.647, 280.578 219.716 C 282.653 203.978, 282.916 204.979, 276.750 205.118 C 273.863 205.183, 270.150 205.534, 268.500 205.896 C 265.724 206.507, 265.293 206.200, 262.730 201.778 L 259.960 197 250.730 196.803 C 234.830 196.464, 231.747 196.486, 222.414 197.006 M 222.779 209.250 C 221.035 210.609, 220.527 217.387, 220.833 235.179 C 221.057 248.162, 220.861 248, 236.349 248 C 253.917 248, 253 249.134, 253 227.419 L 253 209.950 250.435 208.975 C 246.583 207.511, 224.731 207.728, 222.779 209.250 M 231.750 211.716 C 226.226 212.553, 229.199 214, 236.441 214 C 244.490 214, 247.259 212.635, 241.230 211.639 C 237.378 211.002, 236.413 211.010, 231.750 211.716 M 233.584 236.641 C 232.916 238.384, 235.395 243, 237 243 C 238.605 243, 241.084 238.384, 240.416 236.641 C 240.040 235.663, 238.660 235, 237 235 C 235.340 235, 233.960 235.663, 233.584 236.641 M 256.235 290.037 C 253.336 291.201, 251.780 295.309, 252.594 299.648 C 254.065 307.490, 263.710 308.330, 267.526 300.949 C 268.929 298.236, 268.923 297.639, 267.456 294.548 C 266.431 292.389, 264.713 290.747, 262.770 290.070 C 259.226 288.834, 259.229 288.834, 256.235 290.037 M 216.625 291.285 C 215.658 291.992, 214.629 294.354, 214.338 296.535 C 213.291 304.387, 221.089 308.988, 227.139 304.088 C 230.280 301.545, 230.543 293.601, 227.559 291.419 C 225.139 289.650, 218.965 289.574, 216.625 291.285" stroke="none" fill="#0c0505" fill-rule="evenodd"/></svg>