<svg xmlns="http://www.w3.org/2000/svg" width="500" height="500" viewBox="0 0 500 500" version="1.1"><path d="M 270.239 198.261 L 223.986 244.522 234.254 254.754 L 244.521 264.987 290.999 218.501 L 337.477 172.015 327.507 162.007 C 322.024 156.503, 317.302 152, 317.015 152 C 316.727 152, 295.678 172.817, 270.239 198.261 M 322.002 229.498 L 244.508 306.996 213.998 276.498 L 183.488 246 173.324 256.163 L 163.161 266.327 203.330 307.159 C 225.424 329.617, 243.950 347.920, 244.500 347.833 C 245.050 347.745, 284.869 308.150, 332.987 259.843 L 420.475 172.012 410.506 162.006 C 405.023 156.503, 400.303 152, 400.016 152 C 399.730 152, 364.623 186.874, 322.002 229.498 M 90.268 256.220 L 80.043 266.445 120.271 306.972 C 142.397 329.263, 160.950 347.623, 161.500 347.773 C 162.050 347.923, 166.995 343.532, 172.490 338.014 L 182.480 327.983 141.486 286.989 L 100.492 245.995 90.268 256.220" stroke="none" fill="#ffffff" fill-rule="evenodd"/><path d="M 249.762 112.707 C 251.006 112.946, 252.806 112.937, 253.762 112.687 C 254.718 112.437, 253.700 112.241, 251.500 112.252 C 249.300 112.263, 248.518 112.468, 249.762 112.707 M 357.264 112.718 C 358.784 112.947, 361.034 112.941, 362.264 112.704 C 363.494 112.467, 362.250 112.279, 359.500 112.286 C 356.750 112.294, 355.744 112.488, 357.264 112.718 M 208.250 113.716 C 209.762 113.945, 212.238 113.945, 213.750 113.716 C 215.262 113.487, 214.025 113.300, 211 113.300 C 207.975 113.300, 206.738 113.487, 208.250 113.716 M 171.250 114.716 C 172.762 114.945, 175.238 114.945, 176.750 114.716 C 178.262 114.487, 177.025 114.300, 174 114.300 C 170.975 114.300, 169.738 114.487, 171.250 114.716 M 133.250 115.716 C 134.762 115.945, 137.238 115.945, 138.750 115.716 C 140.262 115.487, 139.025 115.300, 136 115.300 C 132.975 115.300, 131.738 115.487, 133.250 115.716 M 97.264 116.718 C 98.784 116.947, 101.034 116.941, 102.264 116.704 C 103.494 116.467, 102.250 116.279, 99.500 116.286 C 96.750 116.294, 95.744 116.488, 97.264 116.718 M 243.768 187.725 C 245.565 187.947, 248.265 187.943, 249.768 187.715 C 251.271 187.486, 249.800 187.304, 246.500 187.310 C 243.200 187.315, 241.971 187.502, 243.768 187.725 M 413.250 187.728 C 415.313 187.944, 418.688 187.944, 420.750 187.728 C 422.813 187.513, 421.125 187.336, 417 187.336 C 412.875 187.336, 411.188 187.513, 413.250 187.728 M 208.250 188.716 C 209.762 188.945, 212.238 188.945, 213.750 188.716 C 215.262 188.487, 214.025 188.300, 211 188.300 C 207.975 188.300, 206.738 188.487, 208.250 188.716 M 77.250 193.689 C 78.213 193.941, 79.787 193.941, 80.750 193.689 C 81.713 193.438, 80.925 193.232, 79 193.232 C 77.075 193.232, 76.287 193.438, 77.250 193.689 M 385.250 209.689 C 386.212 209.941, 387.788 209.941, 388.750 209.689 C 389.712 209.438, 388.925 209.232, 387 209.232 C 385.075 209.232, 384.288 209.438, 385.250 209.689 M 417.250 210.689 C 418.212 210.941, 419.788 210.941, 420.750 210.689 C 421.712 210.438, 420.925 210.232, 419 210.232 C 417.075 210.232, 416.288 210.438, 417.250 210.689 M 176.250 213.689 C 177.213 213.941, 178.787 213.941, 179.750 213.689 C 180.713 213.438, 179.925 213.232, 178 213.232 C 176.075 213.232, 175.287 213.438, 176.250 213.689 M 387.762 278.707 C 389.006 278.946, 390.806 278.937, 391.762 278.687 C 392.718 278.437, 391.700 278.241, 389.500 278.252 C 387.300 278.263, 386.518 278.468, 387.762 278.707 M 335.762 279.707 C 337.006 279.946, 338.806 279.937, 339.762 279.687 C 340.718 279.437, 339.700 279.241, 337.500 279.252 C 335.300 279.263, 334.518 279.468, 335.762 279.707 M 240.768 281.725 C 242.565 281.947, 245.265 281.943, 246.768 281.715 C 248.271 281.486, 246.800 281.304, 243.500 281.310 C 240.200 281.315, 238.971 281.502, 240.768 281.725 M 322.500 312.727 L 280.500 313.021 262.490 331.011 L 244.479 349.001 227 331.500 L 209.521 314 201.918 314 C 197.736 314, 188.814 314.296, 182.092 314.657 L 169.869 315.314 176.161 321.663 L 182.453 328.011 171.991 338.509 L 161.529 349.007 145.452 332.952 L 129.375 316.897 102.766 318.310 C 73.832 319.847, 72.141 320.233, 67.605 326.327 C 65.613 329.002, 65.500 330.350, 65.500 351.327 C 65.500 384.007, 66.041 384.722, 91.805 386.068 C 119.914 387.537, 277.688 387.572, 307 386.117 C 321.575 385.393, 355.775 384.506, 383 384.145 C 437.869 383.419, 437.020 383.527, 440.277 376.867 C 441.697 373.962, 442.261 368.749, 443.088 350.867 C 444.379 322.938, 443.704 317.281, 438.679 313.946 C 436.319 312.380, 410.503 312.109, 322.500 312.727" stroke="none" fill="#004aad" fill-rule="evenodd"/><path d="M 348.750 112.706 C 349.988 112.944, 352.012 112.944, 353.250 112.706 C 354.488 112.467, 353.475 112.272, 351 112.272 C 348.525 112.272, 347.512 112.467, 348.750 112.706 M 217.750 113.706 C 218.988 113.944, 221.012 113.944, 222.250 113.706 C 223.488 113.467, 222.475 113.272, 220 113.272 C 217.525 113.272, 216.512 113.467, 217.750 113.706 M 446.252 149.500 C 446.263 151.700, 446.468 152.482, 446.707 151.238 C 446.946 149.994, 446.937 148.194, 446.687 147.238 C 446.437 146.282, 446.241 147.300, 446.252 149.500 M 446.232 162 C 446.232 163.925, 446.438 164.713, 446.689 163.750 C 446.941 162.787, 446.941 161.213, 446.689 160.250 C 446.438 159.287, 446.232 160.075, 446.232 162 M 234.264 187.718 C 235.784 187.947, 238.034 187.941, 239.264 187.704 C 240.494 187.467, 239.250 187.279, 236.500 187.286 C 233.750 187.294, 232.744 187.488, 234.264 187.718 M 284.168 226.012 C 263.085 247.456, 245.302 265, 244.649 265 C 243.996 265, 238.978 260.498, 233.496 254.996 L 223.529 244.992 240.759 227.746 L 257.989 210.500 249.244 210.777 C 239.337 211.091, 136.161 215.407, 99 217.061 C 85.525 217.661, 71.802 218.456, 68.504 218.827 C 62.609 219.490, 62.484 219.569, 61.087 223.501 C 58.160 231.735, 60.630 278.260, 64.239 282.885 C 67.839 287.497, 72.776 288.381, 86.655 286.898 L 98.134 285.672 89.067 276.567 C 84.080 271.560, 80 267.012, 80 266.462 C 80 265.912, 84.502 260.977, 90.005 255.495 L 100.009 245.528 119.255 264.688 L 138.500 283.847 158.329 283.275 L 178.158 282.704 170.579 275.080 C 166.411 270.887, 163 267.007, 163 266.459 C 163 265.911, 167.502 260.977, 173.004 255.496 L 183.009 245.529 201.284 263.785 L 219.560 282.040 245.192 281.363 L 270.825 280.686 306.409 245.093 L 341.994 209.500 321.247 209.783 L 300.500 210.065 311.984 198.533 C 318.300 192.190, 323.250 187.006, 322.984 187.012 C 322.718 187.019, 305.251 204.569, 284.168 226.012 M 108.250 193.689 C 109.213 193.941, 110.787 193.941, 111.750 193.689 C 112.713 193.438, 111.925 193.232, 110 193.232 C 108.075 193.232, 107.287 193.438, 108.250 193.689 M 348.382 244.783 L 313.776 280.066 341.138 279.497 C 381.336 278.663, 429.731 277.064, 435.759 276.371 C 439.906 275.895, 441.529 275.160, 443.436 272.894 C 448.256 267.166, 448.962 255.019, 445.873 231 C 443.487 212.453, 441.274 211.320, 405.244 210.195 L 382.988 209.500 348.382 244.783 M 302.980 289.750 L 293.500 299.500 303.250 290.020 C 312.306 281.215, 313.455 280, 312.730 280 C 312.582 280, 308.194 284.387, 302.980 289.750 M 110 297.500 C 116.307 303.825, 121.692 309, 121.967 309 C 122.242 309, 117.307 303.825, 111 297.500 C 104.693 291.175, 99.308 286, 99.033 286 C 98.758 286, 103.693 291.175, 110 297.500" stroke="none" fill="#5271ff" fill-rule="evenodd"/><path d="M 250 113.009 C 107.021 116.497, 64.529 117.849, 61.484 119.006 C 56.202 121.014, 56.024 122.257, 57.021 150 C 57.525 164.025, 58.451 177.300, 59.079 179.500 C 60.616 184.881, 66.477 190.311, 72.616 192.041 C 80.958 194.392, 104.492 193.768, 189 188.957 C 198.625 188.409, 223.225 187.674, 243.666 187.325 L 280.831 186.689 298.652 168.848 L 316.473 151.006 327.233 161.733 L 337.994 172.459 330.772 179.730 L 323.550 187 343.536 187 L 363.521 187 381 169.500 C 390.613 159.875, 398.926 152, 399.472 152 C 400.019 152, 405.085 156.603, 410.730 162.229 L 420.994 172.459 413.747 179.848 L 406.500 187.237 422 186.604 C 441.115 185.824, 442.853 185.472, 444.204 182.119 C 445.857 178.017, 446.456 143.547, 445.042 133.878 C 443.260 121.690, 442.401 120.476, 434.268 118.646 C 412.458 113.739, 327.107 111.128, 250 113.009" stroke="none" fill="#38b6ff" fill-rule="evenodd"/><path d="M 264.750 112.740 C 268.188 112.936, 273.813 112.936, 277.250 112.740 C 280.688 112.545, 277.875 112.385, 271 112.385 C 264.125 112.385, 261.313 112.545, 264.750 112.740 M 331.750 112.737 C 334.637 112.939, 339.363 112.939, 342.250 112.737 C 345.137 112.535, 342.775 112.370, 337 112.370 C 331.225 112.370, 328.863 112.535, 331.750 112.737 M 226.768 113.725 C 228.565 113.947, 231.265 113.943, 232.768 113.715 C 234.271 113.486, 232.800 113.304, 229.500 113.310 C 226.200 113.315, 224.971 113.502, 226.768 113.725 M 185.250 114.689 C 186.213 114.941, 187.787 114.941, 188.750 114.689 C 189.713 114.438, 188.925 114.232, 187 114.232 C 185.075 114.232, 184.287 114.438, 185.250 114.689 M 147.250 115.689 C 148.213 115.941, 149.787 115.941, 150.750 115.689 C 151.713 115.438, 150.925 115.232, 149 115.232 C 147.075 115.232, 146.287 115.438, 147.250 115.689 M 109.250 116.689 C 110.213 116.941, 111.787 116.941, 112.750 116.689 C 113.713 116.438, 112.925 116.232, 111 116.232 C 109.075 116.232, 108.287 116.438, 109.250 116.689 M 71.768 117.725 C 73.565 117.947, 76.265 117.943, 77.768 117.715 C 79.271 117.486, 77.800 117.304, 74.500 117.310 C 71.200 117.315, 69.971 117.502, 71.768 117.725 M 298.490 169.250 L 280.500 187.500 298.750 169.510 C 308.788 159.616, 317 151.404, 317 151.260 C 317 150.548, 315.203 152.294, 298.490 169.250 M 380.989 169.750 L 363.500 187.500 381.250 170.011 C 391.012 160.392, 399 152.404, 399 152.261 C 399 151.548, 397.238 153.259, 380.989 169.750 M 446.232 156 C 446.232 157.925, 446.438 158.713, 446.689 157.750 C 446.941 156.787, 446.941 155.213, 446.689 154.250 C 446.438 153.287, 446.232 154.075, 446.232 156 M 330 179.500 C 325.903 183.625, 322.775 187, 323.050 187 C 323.325 187, 326.903 183.625, 331 179.500 C 335.097 175.375, 338.225 172, 337.950 172 C 337.675 172, 334.097 175.375, 330 179.500 M 412.477 180.250 L 404.500 188.500 412.750 180.523 C 420.412 173.115, 421.456 172, 420.727 172 C 420.576 172, 416.864 175.713, 412.477 180.250 M 227.250 187.689 C 228.213 187.941, 229.787 187.941, 230.750 187.689 C 231.713 187.438, 230.925 187.232, 229 187.232 C 227.075 187.232, 226.287 187.438, 227.250 187.689 M 180.250 189.689 C 181.213 189.941, 182.787 189.941, 183.750 189.689 C 184.713 189.438, 183.925 189.232, 182 189.232 C 180.075 189.232, 179.287 189.438, 180.250 189.689 M 100.750 193.706 C 101.987 193.944, 104.013 193.944, 105.250 193.706 C 106.487 193.467, 105.475 193.272, 103 193.272 C 100.525 193.272, 99.513 193.467, 100.750 193.706 M 271.993 237.750 L 244.500 265.500 272.250 238.007 C 287.512 222.886, 300 210.398, 300 210.257 C 300 209.550, 297.542 211.962, 271.993 237.750 M 335.992 256.750 L 312.500 280.500 336.250 257.008 C 358.319 235.179, 360.451 233, 359.742 233 C 359.600 233, 348.913 243.688, 335.992 256.750 M 233.500 255 C 238.979 260.500, 243.687 265, 243.962 265 C 244.237 265, 239.979 260.500, 234.500 255 C 229.021 249.500, 224.313 245, 224.038 245 C 223.763 245, 228.021 249.500, 233.500 255 M 89.481 256.250 L 79.500 266.500 89.750 256.519 C 95.388 251.029, 100 246.417, 100 246.269 C 100 245.545, 98.752 246.730, 89.481 256.250 M 172.481 256.250 L 162.500 266.500 172.750 256.519 C 178.387 251.029, 183 246.417, 183 246.269 C 183 245.545, 181.752 246.730, 172.481 256.250 M 89 276.500 C 94.203 281.725, 98.685 286, 98.960 286 C 99.235 286, 95.203 281.725, 90 276.500 C 84.797 271.275, 80.315 267, 80.040 267 C 79.765 267, 83.797 271.275, 89 276.500 M 170.500 275 C 174.874 279.400, 178.678 283, 178.953 283 C 179.228 283, 175.874 279.400, 171.500 275 C 167.126 270.600, 163.322 267, 163.047 267 C 162.772 267, 166.126 270.600, 170.500 275 M 200 304.500 C 209.613 314.125, 217.704 322, 217.979 322 C 218.254 322, 210.613 314.125, 201 304.500 C 191.387 294.875, 183.296 287, 183.021 287 C 182.746 287, 190.387 294.875, 200 304.500 M 269.492 323.250 L 245.500 347.500 269.750 323.508 C 292.284 301.214, 294.451 299, 293.742 299 C 293.600 299, 282.688 309.913, 269.492 323.250 M 138.500 326 C 147.838 335.350, 155.703 343, 155.978 343 C 156.253 343, 148.838 335.350, 139.500 326 C 130.162 316.650, 122.297 309, 122.022 309 C 121.747 309, 129.162 316.650, 138.500 326" stroke="none" fill="#3cb3fb" fill-rule="evenodd"/><path d="M 0 250.002 L 0 500.004 250.250 499.752 L 500.500 499.500 500.752 249.750 L 501.004 0 250.502 0 L 0 0 0 250.002 M 0.492 250.500 C 0.492 388, 0.608 444.101, 0.750 375.170 C 0.892 306.238, 0.892 193.738, 0.750 125.170 C 0.608 56.601, 0.492 113, 0.492 250.500 M 238.500 112.691 C 233 112.841, 193.175 113.872, 150 114.982 C 106.825 116.092, 69.123 117.259, 66.217 117.576 C 59.793 118.277, 55.986 121.179, 55.821 125.500 C 55.510 133.636, 57.274 173.157, 58.154 177.791 C 59.510 184.932, 64.462 190.179, 71.932 192.391 C 78.934 194.465, 100.115 194.503, 135.748 192.507 C 179.915 190.031, 224.117 188.137, 253.500 187.459 L 281.500 186.813 269.747 198.657 L 257.994 210.500 246.747 210.783 C 218.710 211.487, 80.334 217.578, 69.162 218.599 C 63.031 219.159, 62.770 219.298, 61.184 222.839 C 58.027 229.887, 60.105 275.723, 63.903 282.819 C 64.494 283.923, 67.054 285.619, 69.591 286.588 C 73.805 288.197, 75.248 288.238, 86.224 287.058 L 98.242 285.766 113.630 301.130 C 122.094 309.580, 128.677 316.606, 128.259 316.744 C 127.842 316.881, 115.946 317.609, 101.825 318.361 C 73.914 319.847, 72.116 320.266, 67.605 326.327 C 65.613 329.002, 65.500 330.350, 65.500 351.327 C 65.500 384.007, 66.041 384.722, 91.805 386.068 C 119.914 387.537, 277.688 387.572, 307 386.117 C 321.575 385.393, 355.775 384.506, 383 384.145 C 437.869 383.419, 437.020 383.527, 440.277 376.867 C 441.697 373.962, 442.261 368.749, 443.088 350.867 C 444.106 328.845, 443.842 321.941, 441.809 317.480 C 439.481 312.370, 441.382 312.476, 358.086 312.832 L 280.500 313.164 297 296.634 L 313.500 280.104 364.500 278.998 C 427.918 277.623, 439.296 276.947, 442.124 274.388 C 445.800 271.061, 447.262 266.812, 447.753 258.033 C 448.276 248.684, 445.595 223.082, 443.667 219.016 C 440.687 212.734, 429.680 210.126, 405.500 209.973 C 397.800 209.925, 389.802 209.573, 387.726 209.192 L 383.952 208.500 394.226 198.366 L 404.500 188.231 419.500 187.566 C 435.012 186.878, 442.506 185.894, 444.061 184.339 C 445.819 182.581, 447.263 162.542, 446.680 148 C 446.107 133.743, 444.120 122.686, 441.703 120.323 C 438.553 117.241, 416.165 114.668, 378 113.003 C 358.263 112.141, 266.212 111.936, 238.500 112.691 M 311.984 198.585 L 300.500 210.171 321.254 209.814 L 342.007 209.457 352.478 199.022 C 359.614 191.911, 362.559 188.339, 361.725 187.809 C 361.051 187.381, 352.168 187.024, 341.984 187.015 L 323.467 187 311.984 198.585 M 234.731 281.959 L 219.962 282.500 232.246 294.750 L 244.529 307 257.500 294 L 270.471 281 259.986 281.209 C 254.219 281.324, 242.854 281.662, 234.731 281.959 M 146.229 283.930 L 138.958 284.500 154.307 299.816 L 169.656 315.133 189.415 314.415 L 209.173 313.697 193.848 298.348 L 178.524 283 166.012 283.180 C 159.130 283.279, 150.228 283.617, 146.229 283.930" stroke="none" fill="#1e304f" fill-rule="evenodd"/></svg>